<?xml version="1.0" encoding="UTF-8" standalone="no"?>
<!DOCTYPE svg PUBLIC "-//W3C//DTD SVG 1.1//EN" "http://www.w3.org/Graphics/SVG/1.1/DTD/svg11.dtd">
<svg width="100%" height="100%" viewBox="0 0 256 256" version="1.1" xmlns="http://www.w3.org/2000/svg" xmlns:xlink="http://www.w3.org/1999/xlink" xml:space="preserve" xmlns:serif="http://www.serif.com/" style="fill-rule:evenodd;clip-rule:evenodd;stroke-linejoin:round;stroke-miterlimit:2;">
    <g transform="matrix(1.23289,0,0,1.302209,-29.56654,-48.325141)">
        <path d="M231.624,65.331L231.624,205.479C231.624,221.054 218.268,233.699 201.817,233.699L53.789,233.699C37.338,233.699 23.981,221.054 23.981,205.479C23.981,205.479 23.981,65.331 23.981,65.331C23.982,49.755 37.338,37.11 53.789,37.11L201.817,37.11C218.268,37.11 231.624,49.755 231.624,65.331Z" style="fill:rgb(27,27,27);"/>
    </g>
    <g transform="matrix(1.23289,0,0,1.302209,-29.56654,-48.325141)">
        <path d="M226.02,65.331L226.02,205.479C226.02,218.126 215.175,228.394 201.817,228.394L53.789,228.394C40.43,228.394 29.585,218.126 29.585,205.479L29.585,65.331C29.585,52.683 40.43,42.415 53.789,42.415L201.817,42.415C215.175,42.415 226.02,52.683 226.02,65.331Z" style="fill:white;"/>
    </g>
    <g transform="matrix(3.299689,0,0,1.435854,-135.781593,-8.12691)">
        <path d="M102.753,174.463L89.624,174.463L80.105,153.129L68.289,175.12L53.52,174.792L73.213,139.344L58.771,113.742L70.259,107.178L81.418,127.199L96.188,106.193L106.363,113.414C103.081,117.572 99.799,122.167 96.517,127.199C93.453,131.795 90.718,136.171 88.311,140.328L102.753,174.463Z" style="fill-rule:nonzero;"/>
    </g>
    <g transform="matrix(2.243688,0,0,2.243688,-181.964777,-270.412356)">
        <path d="M125.985,164.631L125.985,150.107L112.2,150.107L138.129,124.137L164.1,150.107L150.314,150.107L150.314,164.631L125.985,164.631ZM138.129,129.84L121.964,146.046L130.047,146.046L130.047,160.569L146.253,160.569L146.253,146.046L154.335,146.046L138.129,129.84ZM125.985,184.858L125.985,170.703L150.314,170.703L150.314,184.858L125.985,184.858ZM130.047,180.796L146.253,180.796L146.253,174.724L130.047,174.724L130.047,180.796Z" style="fill-rule:nonzero;"/>
    </g>
</svg>
